<?xml version="1.0" standalone="no"?>
<!DOCTYPE svg PUBLIC "-//W3C//DTD SVG 20010904//EN"
 "http://www.w3.org/TR/2001/REC-SVG-20010904/DTD/svg10.dtd">
<svg version="1.0" xmlns="http://www.w3.org/2000/svg"
 width="600.000000pt" height="600.000000pt" viewBox="0 0 600.000000 600.000000"
 preserveAspectRatio="xMidYMid meet">
<metadata>
Created by potrace 1.14, written by Peter Selinger 2001-2017
</metadata>
<g transform="translate(0.000000,600.000000) scale(0.100000,-0.100000)"
fill="#000000" stroke="none">
<path d="M457 5224 c-1 -1 -51 -4 -112 -8 -122 -7 -197 -16 -205 -23 -3 -3 -6
-28 -6 -56 -5 -187 -17 -605 -20 -722 -2 -77 -6 -735 -9 -1462 -5 -1070 -3
-1323 7 -1324 19 -1 78 2 113 7 173 23 540 23 720 -1 17 -2 55 -7 85 -10 30
-3 64 -8 75 -10 11 -3 38 -7 60 -10 55 -9 165 -29 215 -41 14 -3 33 -7 42 -9
118 -24 394 -112 550 -176 347 -143 589 -290 975 -591 9 -8 11 0 8 34 -2 23
-7 108 -10 187 -3 79 -8 163 -10 185 -2 23 -6 95 -10 161 -20 383 -42 603 -46
464 -1 -24 -3 -57 -4 -74 -1 -16 -5 -73 -9 -125 -4 -52 -9 -117 -11 -145 -2
-27 -6 -105 -10 -171 -11 -206 -13 -235 -18 -241 -3 -3 -39 24 -79 59 -288
250 -678 471 -1076 609 -188 64 -457 133 -607 154 -23 3 -50 7 -61 9 -11 2
-47 7 -79 11 -33 4 -73 9 -90 11 -64 8 -235 17 -337 18 l-107 1 -1 775 c0 426
-2 912 -4 1080 -6 390 -16 941 -21 1093 -2 64 0 117 3 117 4 1 34 4 67 8 124
15 481 7 582 -13 11 -2 38 -6 59 -9 22 -4 46 -8 54 -11 8 -2 32 -6 54 -10 21
-3 42 -7 46 -10 3 -2 20 -6 36 -9 95 -17 350 -102 514 -171 96 -40 344 -165
433 -219 43 -25 81 -46 84 -46 3 0 18 -9 34 -21 50 -35 31 -6 -24 36 -157 122
-244 184 -349 251 -401 254 -843 410 -1248 440 -77 6 -249 11 -253 8z"/>
<path d="M5408 5225 c-2 -1 -48 -6 -103 -9 -55 -3 -109 -8 -120 -10 -11 -2
-42 -7 -70 -10 -92 -13 -279 -58 -395 -96 -255 -85 -506 -209 -740 -365 -132
-89 -339 -245 -340 -257 0 -4 35 14 78 39 122 72 139 82 282 154 339 170 635
268 975 324 126 21 491 28 606 12 l57 -8 -3 -122 c-4 -132 -15 -736 -20 -1012
-2 -93 -4 -566 -5 -1050 l-1 -880 -112 -1 c-111 -1 -268 -10 -350 -20 -122
-15 -266 -36 -297 -44 -19 -5 -51 -12 -70 -15 -135 -22 -419 -107 -620 -186
-291 -114 -724 -375 -923 -559 -45 -40 -67 -54 -68 -43 -1 10 -5 66 -13 223
-4 69 -9 145 -11 170 -2 25 -7 92 -11 150 -4 58 -8 123 -9 145 -2 22 -4 55 -4
74 -1 49 -11 32 -16 -25 -2 -27 -6 -83 -9 -124 -8 -92 -13 -171 -21 -320 -4
-63 -8 -140 -10 -170 -2 -30 -7 -118 -10 -195 -4 -77 -8 -157 -10 -177 l-2
-38 36 27 c20 15 65 50 101 78 442 347 941 576 1516 694 56 11 119 23 140 26
22 3 48 7 59 10 11 2 45 7 75 10 30 3 69 8 85 10 77 10 242 19 360 19 132 0
352 -10 376 -18 8 -2 35 -7 62 -10 l48 -6 -6 1313 c-2 721 -7 1380 -9 1462 -2
83 -7 269 -11 415 -4 146 -7 291 -7 323 0 31 -3 59 -7 61 -20 13 -441 41 -453
31z"/>
<path d="M1776 4083 c-1 -1 -26 -5 -56 -8 -338 -37 -627 -269 -706 -566 -38
-145 -20 -363 41 -497 111 -242 362 -407 665 -439 245 -25 504 20 682 120 114
64 105 30 104 357 l0 286 -128 0 c-122 0 -128 -1 -129 -21 0 -11 0 -107 0
-212 -1 -197 -10 -268 -43 -331 -35 -68 -116 -122 -203 -137 -66 -11 -220 -14
-265 -4 -76 17 -182 75 -242 135 -137 136 -206 324 -201 550 7 343 163 599
415 685 160 54 508 16 656 -71 l32 -18 11 26 c14 30 13 32 -79 66 -113 43
-168 56 -305 72 -56 6 -244 12 -249 7z"/>
<path d="M3660 4082 c-8 -2 -23 -11 -32 -20 -17 -14 -18 -62 -18 -734 l0 -718
28 0 28 0 0 551 c-1 407 2 553 10 556 11 4 93 -77 390 -383 725 -746 688 -710
736 -735 44 -23 58 -24 84 -5 18 14 19 33 19 730 l1 716 -28 0 -28 0 0 -540
c0 -446 -2 -540 -13 -540 -8 0 -138 127 -289 283 -566 580 -747 764 -790 805
-27 25 -75 42 -98 34z"/>
</g>
</svg>
